<svg xmlns="http://www.w3.org/2000/svg" viewBox="0 0 245.07 226.35"><defs><style>.cls-1{fill:none;stroke:#ffb300;stroke-linecap:round;stroke-linejoin:round;stroke-width:12px;}</style></defs><g id="레이어_2" data-name="레이어 2"><g id="ico0"><path id="ico0_2" class="cls-1" d="M19.64,26.39S23.32,6,84,6c38.55,0,67,6.74,67.78,24.05,0,15.25-23.26,19.58-33.19,19.58"/><path id="ico0_1" class="cls-1" d="M84,32.25S97.6,43.3,97.86,51,84,70.52,84,70.52"/><path id="ico0_0" class="cls-1" d="M73.06,50.05s-26.45.38-44.17-4.75c-9.25,7.19-6.65,21.46-7.71,23.88S5.26,83.82,6,95.89c1.74,10.26,11.47,7.31,13.35,8.74s-2.57,18.48,5,27.28c2.05,2.28,11.83,10,23.51,7.39,8.32-2.41,6.43,15.15,6.43,15.15"/><path id="ico0_3" class="cls-1" d="M126.43,154.45s-.38-47.79.57-50.74c2.1-6.55,14.05-18.67,14.73-24.15S142,59.7,142,59.7"/><path id="ico0_4" class="cls-1" d="M73.06,220.35s143.37-1.92,135.67-150.09"/><polyline id="ico0_5" class="cls-1" points="176.46 97.16 208.79 54.9 239.07 97.16"/></g></g></svg>