<svg xmlns="http://www.w3.org/2000/svg" xmlns:xlink="http://www.w3.org/1999/xlink" width="184.968" height="57.69" viewBox="0 0 184.968 57.69"><defs><filter id="a" x="0" y="0" width="184.968" height="57.69" filterUnits="userSpaceOnUse"><feOffset dy="3" input="SourceAlpha"/><feGaussianBlur stdDeviation="3" result="b"/><feFlood flood-opacity="0.161"/><feComposite operator="in" in2="b"/><feComposite in="SourceGraphic"/></filter></defs><g transform="matrix(1, 0, 0, 1, 0, 0)" filter="url(#a)"><path d="M7.83,0V-32.454H1.35V-38.07H20.466v5.616h-6.48V0ZM29.916-8.964a4.323,4.323,0,0,0,.837,3,3,3,0,0,0,2.295.891A3.066,3.066,0,0,0,35.4-5.967a4.323,4.323,0,0,0,.837-3V-29.43a4.323,4.323,0,0,0-.837-3,3.066,3.066,0,0,0-2.349-.891,3,3,0,0,0-2.295.891,4.323,4.323,0,0,0-.837,3Zm-6.48-20.358q0-4.59,2.592-7.074a9.723,9.723,0,0,1,7.02-2.484A9.819,9.819,0,0,1,40.1-36.4q2.619,2.484,2.619,7.074V-8.748q0,4.59-2.619,7.074A9.819,9.819,0,0,1,33.048.81a9.723,9.723,0,0,1-7.02-2.484q-2.592-2.484-2.592-7.074Zm30.078-2.862v9.666h2.268a3.118,3.118,0,0,0,2.538-1.107,5.412,5.412,0,0,0,.918-3.483v-1.134q0-3.942-2.97-3.942Zm3.294-5.886q4.644,0,6.75,2.268t2.106,6.7v1.674a10.4,10.4,0,0,1-.918,4.779,6.4,6.4,0,0,1-2.754,2.727,5.869,5.869,0,0,1,3.321,2.808,10.869,10.869,0,0,1,.945,4.86v3.672q0,4.482-2.4,6.534T56.97,0H47.034V-38.07ZM53.514-16.632V-5.886H56.43a3.64,3.64,0,0,0,2.4-.783,3.453,3.453,0,0,0,.945-2.781v-2.538a5.789,5.789,0,0,0-.864-3.51,3.306,3.306,0,0,0-2.808-1.134ZM76.9-32.184v9.612h8.748v5.886H76.9v7.4a3.972,3.972,0,0,0,.675,2.7,3.555,3.555,0,0,0,2.565.7h6.912V0h-8.37Q74.25,0,72.333-2.079T70.416-9.126V-38.07H86.778v5.886ZM101.9,0V-38.07h10.044a11.04,11.04,0,0,1,4.158.7,6.8,6.8,0,0,1,2.781,2,8.235,8.235,0,0,1,1.539,3.132,16.044,16.044,0,0,1,.486,4.1V-9.99a16.279,16.279,0,0,1-.486,4.158A8.235,8.235,0,0,1,118.881-2.7a6.8,6.8,0,0,1-2.781,2,11.04,11.04,0,0,1-4.158.7Zm9.126-5.886q3.4,0,3.4-4.1v-17.6a5.936,5.936,0,0,0-.837-3.321,2.86,2.86,0,0,0-2.565-1.269h-2.646v26.3ZM130.788,0V-32.454h-6.48V-38.07h19.116v5.616h-6.48V0Zm15.228,0,6.966-19.656L146.34-38.07h6.8l4.32,13.338,4.32-13.338h6.1l-6.642,18.414L168.318,0h-6.912l-4.7-14.58L152.226,0Z" transform="translate(7.65 44.88)" fill="#fff"/></g></svg>