<svg xmlns="http://www.w3.org/2000/svg" width="38.711" height="28.734" viewBox="0 0 38.711 28.734"><path d="M1563.09,4140.92a10.86,10.86,0,0,1,2.5,7.286q0,3.262-2.719,7.829t-9.678,8.917q-3.482,2.177-4.241,1.088t1.849-2.61a16.243,16.243,0,0,0,5.111-4.567q2.064-2.823,1.631-5.219a9.8,9.8,0,0,1-7.068-2.066,7.662,7.662,0,0,1-2.719-6.2,6.807,6.807,0,0,1,2.392-5.219,9.343,9.343,0,0,1,6.524-2.175A8.05,8.05,0,0,1,1563.09,4140.92Zm21.1-.544a9.381,9.381,0,0,1,2.284,6.742,17.552,17.552,0,0,1-3.48,10.33,28.476,28.476,0,0,1-9.134,8.155q-3.048,1.745-4.023.761t2.5-2.718a12.3,12.3,0,0,0,4.676-4.35q2.284-3.262,1.849-5.654-5.006.219-7.177-2.284a8.8,8.8,0,0,1-2.175-5.981,7.22,7.22,0,0,1,2.284-5,8.451,8.451,0,0,1,6.416-2.392A7.9,7.9,0,0,1,1584.186,4140.376Z" transform="translate(-1547.758 -4137.984)" fill="#fff"/></svg>