<svg xmlns="http://www.w3.org/2000/svg" width="39.027" height="29.264" viewBox="0 0 39.027 29.264"><path d="M765.835,4131.692q.652.765-3.045,2.936a13.339,13.339,0,0,0-4.785,4.458,11.822,11.822,0,0,0-2.175,5.329,10.07,10.07,0,0,1,6.959,1.848,6.942,6.942,0,0,1,2.61,5.763,7.633,7.633,0,0,1-2.392,5.764,8.758,8.758,0,0,1-6.307,2.283q-4.353,0-6.416-2.609a10.171,10.171,0,0,1-2.066-6.524q0-5,4.35-10.657t8.917-7.612Q765.18,4130.933,765.835,4131.692Zm21.313.87q.652.765-3.045,2.936a16.1,16.1,0,0,0-4.567,4.023,11.393,11.393,0,0,0-2.392,5.328,10.491,10.491,0,0,1,7.068,1.849,7.062,7.062,0,0,1,2.719,5.981,7.539,7.539,0,0,1-2.392,5.872,8.412,8.412,0,0,1-5.872,2.175,8.6,8.6,0,0,1-9.134-9.134,16.616,16.616,0,0,1,4.241-11.2,25.561,25.561,0,0,1,9.46-7.068Q786.5,4131.8,787.148,4132.563Z" transform="translate(-748.219 -4131.461)" fill="#fff"/></svg>